HIERARCHY
ROOT Hips
{
	OFFSET 0.000000 0.000000 0.000000
	CHANNELS 6 Xposition Yposition Zposition Zrotation Yrotation Xrotation 
	JOINT LeftUpLeg_virtual
	{
		OFFSET 0.000000 0.000000 0.000000
		CHANNELS 3 Zrotation Yrotation Xrotation
		JOINT LeftUpLeg
		{
			OFFSET 8.479694 -4.795517 -0.379053
			CHANNELS 3 Zrotation Yrotation Xrotation
			JOINT LeftLeg
			{
				OFFSET 0.485052 -32.551468 0.112863
				CHANNELS 3 Zrotation Yrotation Xrotation
				JOINT LeftFoot
				{
					OFFSET 0.438033 -32.635670 -3.012641
					CHANNELS 3 Zrotation Yrotation Xrotation
					JOINT LeftToeBase
					{
						OFFSET 0.970169 -13.225353 11.864223
						CHANNELS 3 Zrotation Yrotation Xrotation
						End Site
						{
							OFFSET 0.000000 0.000000 0.000000
						}
					}
				}
			}
		}
	}
	JOINT RightUpLeg_virtual
	{
		OFFSET 0.000000 0.000000 0.000000
		CHANNELS 3 Zrotation Yrotation Xrotation
		JOINT RightUpLeg
		{
			OFFSET -8.479694 -4.795517 -0.379053
			CHANNELS 3 Zrotation Yrotation Xrotation
			JOINT RightLeg
			{
				OFFSET -0.484100 -32.551483 0.112903
				CHANNELS 3 Zrotation Yrotation Xrotation
				JOINT RightFoot
				{
					OFFSET -0.438985 -32.635651 -3.012681
					CHANNELS 3 Zrotation Yrotation Xrotation
					JOINT RightToeBase
					{
						OFFSET -0.970169 -13.225354 11.864223
						CHANNELS 3 Zrotation Yrotation Xrotation
						End Site
						{
							OFFSET 0.000000 0.000000 0.000000
						}
					}
				}
			}
		}
	}
	JOINT Spine_virtual
	{
		OFFSET 0.000000 0.000000 0.000000
		CHANNELS 3 Zrotation Yrotation Xrotation
		JOINT Spine
		{
			OFFSET 0.000000 7.722015 1.166203
			CHANNELS 3 Zrotation Yrotation Xrotation
			JOINT Spine1
			{
				OFFSET 0.000000 12.024086 0.248766
				CHANNELS 3 Zrotation Yrotation Xrotation
				JOINT Spine2
				{
					OFFSET -0.000000 11.503036 -0.491240
					CHANNELS 3 Zrotation Yrotation Xrotation
					JOINT Neck_virtual
					{
						OFFSET 0.000000 0.000000 0.000000
						CHANNELS 3 Zrotation Yrotation Xrotation
						JOINT Neck
						{
							OFFSET 0.000000 18.430687 -3.123054
							CHANNELS 3 Zrotation Yrotation Xrotation
							JOINT Head
							{
								OFFSET -0.000000 9.051071 1.034021
								CHANNELS 3 Zrotation Yrotation Xrotation
								End Site
								{
									OFFSET 0.000000 0.000000 0.000000
								}
							}
						}
					}
					JOINT LeftShoulder_virtual
					{
						OFFSET 0.000000 0.000000 0.000000
						CHANNELS 3 Zrotation Yrotation Xrotation
						JOINT LeftShoulder
						{
							OFFSET 6.197824 13.665230 -4.064723
							CHANNELS 3 Zrotation Yrotation Xrotation
							JOINT LeftArm
							{
								OFFSET 7.778132 -0.187073 -1.709282
								CHANNELS 3 Zrotation Yrotation Xrotation
								JOINT LeftForeArm
								{
									OFFSET 21.954697 0.000000 -2.041093
									CHANNELS 3 Zrotation Yrotation Xrotation
									JOINT LeftHand
									{
										OFFSET 22.992908 0.000000 -0.870901
										CHANNELS 3 Zrotation Yrotation Xrotation
										End Site
										{
											OFFSET 0.000000 0.000000 0.000000
										}
									}
								}
							}
						}
					}
					JOINT RightShoulder_virtual
					{
						OFFSET 0.000000 0.000000 0.000000
						CHANNELS 3 Zrotation Yrotation Xrotation
						JOINT RightShoulder
						{
							OFFSET -6.197824 13.665230 -4.064723
							CHANNELS 3 Zrotation Yrotation Xrotation
							JOINT RightArm
							{
								OFFSET -7.778132 -0.187073 -1.709282
								CHANNELS 3 Zrotation Yrotation Xrotation
								JOINT RightForeArm
								{
									OFFSET -21.954697 0.000000 -2.041093
									CHANNELS 3 Zrotation Yrotation Xrotation
									JOINT RightHand
									{
										OFFSET -22.992908 0.000000 -0.870901
										CHANNELS 3 Zrotation Yrotation Xrotation
										End Site
										{
											OFFSET 0.000000 0.000000 0.000000
										}
									}
								}
							}
						}
					}
				}
			}
		}
	}
}
MOTION
Frames: 7
Frame Time: 0.033333
7.210470 81.014664 -17.610313 -179.820385 -24.817110 179.910407 -1.791753 -0.358377 15.158338 1.969992 -4.078113 -21.938837 4.668785 5.198266 26.875411 1.878516 -6.377213 -11.175275 0.000000 0.000000 0.000000 2.212854 -0.674960 16.885129 -6.019640 11.284974 -23.864754 -0.245833 9.901443 29.106827 12.696143 5.127016 -12.422312 0.000000 0.000000 0.000000 3.648984 1.982219 0.813446 0.617417 -1.880040 -10.122493 -0.366567 -2.261151 8.532198 -0.013989 -0.159807 -0.030329 -0.775236 -0.657427 9.282191 -0.368367 1.727038 -1.255662 0.000000 0.000000 0.000000 1.110230 -0.017474 6.434482 -12.451478 -6.343527 2.593179 -53.828922 -12.257438 -0.140875 5.110728 -23.604159 5.298107 0.000000 0.000000 0.000000 -3.809873 1.733027 5.616726 31.305393 1.225331 9.732861 44.311255 9.894688 5.699023 -1.913962 20.654340 -1.560567 0.000000 0.000000 0.000000 
7.180658 81.007378 -17.725998 -179.772642 -25.179217 179.846899 -1.806077 0.036524 15.174659 1.816687 -3.463619 -21.889435 4.821200 5.811371 27.061729 2.409871 -5.639469 -10.886555 0.000000 0.000000 0.000000 2.136843 -0.123196 17.035457 -6.275469 11.812086 -23.685617 -0.352837 10.408572 28.575411 12.931449 5.303682 -11.672741 0.000000 0.000000 0.000000 3.703046 1.979740 0.779936 0.672545 -1.960561 -10.117740 -0.385369 -2.349327 8.582253 -0.060040 -0.141558 0.046792 -0.761431 -0.588466 9.275801 -0.315416 1.629721 -1.186867 0.000000 0.000000 0.000000 1.145026 -0.061902 6.519227 -12.396568 -5.990489 2.452976 -53.719571 -10.885498 -0.945383 5.075220 -22.711417 5.326624 0.000000 0.000000 0.000000 -3.793143 1.432142 5.610251 31.326041 1.114935 9.627442 44.394898 9.232304 5.439738 -1.983493 20.389346 -1.562652 0.000000 0.000000 0.000000 
7.148925 81.011375 -17.857201 -179.745567 -25.188556 179.776671 -1.799104 0.064550 15.213816 1.846014 -3.545688 -21.794971 4.783890 5.831996 27.051955 2.434684 -5.589475 -10.898832 0.000000 0.000000 0.000000 2.154299 -0.130326 17.072696 -6.233275 11.779928 -23.530762 -0.367936 10.391600 28.535007 12.955869 5.270571 -11.654032 0.000000 0.000000 0.000000 3.736376 2.036571 0.813121 0.758864 -1.937452 -10.159847 -0.374786 -2.380555 8.617732 -0.033983 -0.114796 0.021971 -0.779606 -0.713448 9.356888 -0.316428 1.620303 -1.039661 0.000000 0.000000 0.000000 1.121188 -0.046676 6.599271 -12.291801 -5.363256 2.327352 -53.936262 -8.647481 -2.398350 5.260192 -21.719961 5.185877 0.000000 0.000000 0.000000 -3.833987 1.503664 5.671983 31.247132 0.798595 9.585750 44.642229 8.145998 4.801185 -2.048293 20.339624 -1.639997 0.000000 0.000000 0.000000 
7.103263 81.013786 -17.981262 -179.737931 -25.298196 179.861625 -1.794774 0.057736 15.172295 1.885701 -3.555618 -21.782658 4.788445 5.799041 27.115952 2.372168 -5.622238 -10.888048 0.000000 0.000000 0.000000 2.179180 -0.105911 17.018624 -6.196472 11.761035 -23.433717 -0.350247 10.332551 28.539208 12.935740 5.143121 -11.687299 0.000000 0.000000 0.000000 3.744647 2.004644 0.734461 0.874380 -1.852293 -10.246614 -0.402632 -2.309903 8.652724 -0.036008 -0.088500 0.048652 -0.754829 -0.762228 9.393003 -0.314244 1.589931 -0.859418 0.000000 0.000000 0.000000 1.117308 -0.008172 6.666761 -12.046629 -4.728542 2.273452 -54.298310 -6.360358 -4.579511 5.421794 -20.748675 4.993486 0.000000 0.000000 0.000000 -3.821874 1.331858 5.745069 31.038856 0.609627 9.598292 45.041457 6.861541 4.272244 -2.222142 20.397411 -1.862138 0.000000 0.000000 0.000000 
7.058796 81.016396 -18.067255 -179.785660 -25.461769 179.921239 -1.824717 0.037717 15.164821 1.900829 -3.607877 -21.764265 4.749547 5.773099 27.137498 2.326363 -5.629459 -10.886219 0.000000 0.000000 0.000000 2.180001 -0.203001 16.981151 -6.198780 11.735968 -23.338452 -0.341799 10.335016 28.610481 12.941953 5.046963 -11.744912 0.000000 0.000000 0.000000 3.705923 2.015427 0.714053 0.945872 -1.824887 -10.328734 -0.400554 -2.341494 8.628438 -0.027626 -0.097858 0.034352 -0.804101 -0.601921 9.418406 -0.307597 1.542367 -0.640347 0.000000 0.000000 0.000000 1.088613 -0.001607 6.673016 -11.783923 -4.025544 2.149567 -54.800684 -4.291797 -6.549581 5.524327 -19.900653 5.242314 0.000000 0.000000 0.000000 -3.890623 1.513733 5.739560 30.746086 0.291851 9.396828 45.695994 5.503145 3.828183 -2.337742 20.448138 -2.063452 0.000000 0.000000 0.000000 
7.016060 81.022400 -18.117912 -179.794075 -25.660942 179.904218 -1.839464 -0.017912 15.199925 1.918825 -3.645306 -21.728570 4.729231 5.769223 27.094175 2.273646 -5.628778 -10.894820 0.000000 0.000000 0.000000 2.194183 -0.280700 16.970771 -6.198445 11.675222 -23.224322 -0.339545 10.326278 28.526422 12.979983 4.991229 -11.748048 0.000000 0.000000 0.000000 3.703325 1.946755 0.713387 1.021289 -1.780878 -10.363338 -0.433173 -2.349050 8.629747 -0.031162 -0.117718 0.010432 -0.840233 -0.683309 9.433125 -0.346117 1.587349 -0.428733 0.000000 0.000000 0.000000 1.082106 0.011068 6.679398 -11.453022 -3.535598 2.064958 -55.300271 -2.755064 -7.829568 5.685423 -19.245923 4.716770 0.000000 0.000000 0.000000 -3.905442 1.542193 5.810979 30.518190 0.192945 9.297308 46.292519 4.619527 3.697879 -2.459772 20.482767 -2.282503 0.000000 0.000000 0.000000 
6.972175 81.026840 -18.160931 -179.770716 -25.937570 179.790209 -1.850780 -0.179735 15.281240 1.946603 -3.754633 -21.641429 4.683936 5.785020 27.041262 2.252130 -5.585033 -10.924555 0.000000 0.000000 0.000000 2.213637 -0.470577 17.014852 -6.171807 11.559817 -23.077611 -0.340876 10.307272 28.434757 13.022045 4.981105 -11.717022 0.000000 0.000000 0.000000 3.725069 1.870413 0.691079 1.099305 -1.725563 -10.278781 -0.434398 -2.349370 8.649693 0.003416 -0.095684 0.006526 -0.883982 -0.733776 9.368698 -0.323532 1.560290 -0.217582 0.000000 0.000000 0.000000 1.018189 -0.019205 6.620370 -11.135837 -3.250447 2.013288 -55.672158 -1.900820 -8.477077 5.666871 -18.727323 4.665598 0.000000 0.000000 0.000000 -3.974149 1.535632 5.735963 30.301031 0.139904 9.176240 46.787452 4.049287 3.731218 -2.595102 20.501074 -2.397478 0.000000 0.000000 0.000000 
